<svg xmlns="http://www.w3.org/2000/svg" viewBox="0 0 800 450" fill="none">
  <rect width="800" height="450" fill="#0f172a"/>
  <rect x="40" y="40" width="720" height="50" rx="8" fill="#1e293b"/>
  <circle cx="70" cy="65" r="8" fill="#06b6d4"/>
  <rect x="90" y="58" width="120" height="14" rx="4" fill="#334155"/>
  <rect x="600" y="52" width="140" height="26" rx="13" fill="#06b6d4" opacity="0.3"/>
  <rect x="40" y="110" width="200" height="300" rx="8" fill="#1e293b"/>
  <rect x="60" y="130" width="160" height="12" rx="3" fill="#475569"/>
  <rect x="60" y="155" width="120" height="8" rx="2" fill="#334155"/>
  <rect x="60" y="175" width="140" height="8" rx="2" fill="#334155"/>
  <rect x="60" y="195" width="100" height="8" rx="2" fill="#334155"/>
  <rect x="260" y="110" width="500" height="140" rx="8" fill="#1e293b"/>
  <rect x="280" y="130" width="200" height="16" rx="4" fill="#06b6d4" opacity="0.6"/>
  <rect x="280" y="160" width="300" height="10" rx="3" fill="#475569"/>
  <rect x="280" y="180" width="250" height="10" rx="3" fill="#334155"/>
  <rect x="280" y="210" width="120" height="30" rx="6" fill="#8b5cf6"/>
  <rect x="260" y="270" width="155" height="140" rx="8" fill="#1e293b"/>
  <rect x="275" y="285" width="125" height="80" rx="6" fill="#06b6d4" opacity="0.2"/>
  <rect x="275" y="375" width="90" height="10" rx="3" fill="#475569"/>
  <rect x="275" y="390" width="60" height="12" rx="3" fill="#06b6d4"/>
  <rect x="430" y="270" width="155" height="140" rx="8" fill="#1e293b"/>
  <rect x="445" y="285" width="125" height="80" rx="6" fill="#8b5cf6" opacity="0.2"/>
  <rect x="445" y="375" width="90" height="10" rx="3" fill="#475569"/>
  <rect x="445" y="390" width="60" height="12" rx="3" fill="#8b5cf6"/>
  <rect x="600" y="270" width="155" height="140" rx="8" fill="#1e293b"/>
  <rect x="615" y="285" width="125" height="80" rx="6" fill="#06b6d4" opacity="0.15"/>
  <rect x="615" y="375" width="90" height="10" rx="3" fill="#475569"/>
  <rect x="615" y="390" width="60" height="12" rx="3" fill="#06b6d4"/>
  <circle cx="680" cy="65" r="14" fill="none" stroke="#06b6d4" stroke-width="2"/>
  <path d="M672 65 L678 71 L688 59" stroke="#06b6d4" stroke-width="2" fill="none"/>
</svg>
