<svg xmlns="http://www.w3.org/2000/svg" viewBox="0 0 800 450" fill="none">
  <rect width="800" height="450" fill="#0f172a"/>
  <rect x="280" y="30" width="240" height="390" rx="24" fill="#1e293b" stroke="#334155" stroke-width="2"/>
  <rect x="300" y="55" width="200" height="12" rx="4" fill="#475569"/>
  <rect x="300" y="85" width="200" height="100" rx="12" fill="url(#grad1)"/>
  <defs>
    <linearGradient id="grad1" x1="0%" y1="0%" x2="100%" y2="100%">
      <stop offset="0%" stop-color="#06b6d4"/>
      <stop offset="100%" stop-color="#8b5cf6"/>
    </linearGradient>
  </defs>
  <rect x="315" y="105" width="80" height="10" rx="3" fill="white" opacity="0.6"/>
  <rect x="315" y="125" width="120" height="20" rx="4" fill="white" opacity="0.9"/>
  <rect x="300" y="205" width="95" height="70" rx="8" fill="#0f172a"/>
  <rect x="310" y="218" width="50" height="8" rx="2" fill="#475569"/>
  <rect x="310" y="235" width="70" height="14" rx="3" fill="#22c55e"/>
  <rect x="405" y="205" width="95" height="70" rx="8" fill="#0f172a"/>
  <rect x="415" y="218" width="50" height="8" rx="2" fill="#475569"/>
  <rect x="415" y="235" width="70" height="14" rx="3" fill="#06b6d4"/>
  <rect x="300" y="295" width="200" height="10" rx="3" fill="#475569"/>
  <rect x="300" y="320" width="200" height="36" rx="8" fill="#0f172a"/>
  <rect x="310" y="332" width="120" height="8" rx="2" fill="#334155"/>
  <rect x="310" y="345" width="80" height="6" rx="2" fill="#06b6d4" opacity="0.5"/>
  <rect x="300" y="370" width="200" height="36" rx="8" fill="#0f172a"/>
  <rect x="310" y="382" width="120" height="8" rx="2" fill="#334155"/>
  <rect x="310" y="395" width="80" height="6" rx="2" fill="#8b5cf6" opacity="0.5"/>
  <circle cx="400" cy="45" r="4" fill="#334155"/>
  <path d="M120 200 L160 170 L200 190 L240 150 L280 175" stroke="#06b6d4" stroke-width="2" fill="none" opacity="0.4"/>
  <rect x="80" y="280" width="140" height="80" rx="8" fill="#1e293b" opacity="0.6"/>
  <rect x="580" y="120" width="140" height="80" rx="8" fill="#1e293b" opacity="0.6"/>
  <rect x="595" y="140" width="110" height="8" rx="2" fill="#475569"/>
  <rect x="595" y="160" width="80" height="20" rx="4" fill="#22c55e" opacity="0.3"/>
</svg>
