<svg xmlns="http://www.w3.org/2000/svg" viewBox="0 0 800 450" fill="none">
  <rect width="800" height="450" fill="#0f172a"/>
  <rect x="40" y="40" width="720" height="50" rx="8" fill="#1e293b"/>
  <rect x="60" y="55" width="200" height="20" rx="4" fill="#06b6d4" opacity="0.4"/>
  <rect x="500" y="52" width="240" height="26" rx="13" fill="#0f172a" stroke="#334155"/>
  <rect x="40" y="110" width="340" height="300" rx="8" fill="#1e293b"/>
  <rect x="55" y="125" width="310" height="180" rx="6" fill="#06b6d4" opacity="0.15"/>
  <path d="M155 220 L210 170 L265 195 L320 150 L365 175" stroke="#06b6d4" stroke-width="2" fill="none" opacity="0.5"/>
  <circle cx="320" cy="160" r="20" fill="#8b5cf6" opacity="0.6"/>
  <rect x="55" y="320" width="200" height="16" rx="4" fill="#475569"/>
  <rect x="55" y="345" width="120" height="20" rx="4" fill="#06b6d4"/>
  <rect x="185" y="345" width="80" height="20" rx="4" fill="#334155"/>
  <rect x="400" y="110" width="360" height="140" rx="8" fill="#1e293b"/>
  <rect x="415" y="125" width="120" height="90" rx="6" fill="#8b5cf6" opacity="0.2"/>
  <rect x="550" y="125" width="190" height="14" rx="3" fill="#475569"/>
  <rect x="550" y="150" width="150" height="10" rx="3" fill="#334155"/>
  <rect x="550" y="170" width="100" height="10" rx="3" fill="#334155"/>
  <rect x="550" y="195" width="80" height="18" rx="4" fill="#06b6d4" opacity="0.5"/>
  <rect x="400" y="270" width="360" height="140" rx="8" fill="#1e293b"/>
  <rect x="415" y="285" width="120" height="90" rx="6" fill="#06b6d4" opacity="0.15"/>
  <rect x="550" y="285" width="190" height="14" rx="3" fill="#475569"/>
  <rect x="550" y="310" width="150" height="10" rx="3" fill="#334155"/>
  <rect x="550" y="330" width="100" height="10" rx="3" fill="#334155"/>
  <rect x="550" y="355" width="80" height="18" rx="4" fill="#8b5cf6" opacity="0.5"/>
</svg>
